# xmcd
#
# Track frame offsets:
#	150
#	11081
#	28797
#	45063
#	60700
#	72882
#	88937
#	104582
#	122736
#	139120
#	153398
#	178561
#	194507
#	197685
#	215157
#	238388
#	242284
#	253705
#	264886
#	278550
#	292430
#	306444
#	316715
#	327695
#	332505
#
# Disc length: 4782 seconds
#
# Revision: 0
# Processed by: cddbd v1.5.1PL0 Copyright (c) Steve Scherf et al.
# Submitted via: audiograbber 1.80
#
DISCID=7c12ac19
DTITLE=fvn - vbn
DYEAR=1900
DGENRE=
TTITLE0=vbn
TTITLE1=vb
TTITLE2=vbn
TTITLE3=nv
TTITLE4=brhr
TTITLE5=nvb
TTITLE6=n
TTITLE7=4
TTITLE8=tzrtz
TTITLE9=fdghf
TTITLE10=Track ghfghfg
TTITLE11=fgh
TTITLE12=gfh
TTITLE13=fgh
TTITLE14=vbc
TTITLE15=vbcvb
TTITLE16=cvb
TTITLE17=cvb
TTITLE18=cvbc
TTITLE19=sg
TTITLE20=ewrg
TTITLE21=uojil
TTITLE22=uil
TTITLE23=wsedfg
TTITLE24=hgkj
EXTD=vbnbvnv
EXTT0=
EXTT1=
EXTT2=
EXTT3=
EXTT4=
EXTT5=
EXTT6=
EXTT7=
EXTT8=
EXTT9=
EXTT10=
EXTT11=
EXTT12=
EXTT13=
EXTT14=
EXTT15=
EXTT16=
EXTT17=
EXTT18=
EXTT19=
EXTT20=
EXTT21=
EXTT22=
EXTT23=
EXTT24=
PLAYORDER=
